<?xml version="1.0" encoding="UTF-8" standalone="no"?>
<!-- Created with Inkscape (http://www.inkscape.org/) -->

<svg
   xmlns:dc="http://purl.org/dc/elements/1.1/"
   xmlns:cc="http://creativecommons.org/ns#"
   xmlns:rdf="http://www.w3.org/1999/02/22-rdf-syntax-ns#"
   xmlns:svg="http://www.w3.org/2000/svg"
   xmlns="http://www.w3.org/2000/svg"
   xmlns:sodipodi="http://sodipodi.sourceforge.net/DTD/sodipodi-0.dtd"
   xmlns:inkscape="http://www.inkscape.org/namespaces/inkscape"
   width="210mm"
   height="297mm"
   viewBox="0 0 210 297"
   version="1.1"
   id="svg8"
   inkscape:version="0.92.5 (0.92.4+202005162354+6c0c36e)"
   sodipodi:docname="desenhojoao.svg">
  <defs
     id="defs2" />
  <sodipodi:namedview
     id="base"
     pagecolor="#ffffff"
     bordercolor="#666666"
     borderopacity="1.0"
     inkscape:pageopacity="0.0"
     inkscape:pageshadow="2"
     inkscape:zoom="0.5"
     inkscape:cx="-58.59691"
     inkscape:cy="574.82007"
     inkscape:document-units="mm"
     inkscape:current-layer="g3789"
     showgrid="false"
     inkscape:window-width="2560"
     inkscape:window-height="1052"
     inkscape:window-x="1920"
     inkscape:window-y="0"
     inkscape:window-maximized="1" />
  <metadata
     id="metadata5">
    <rdf:RDF>
      <cc:Work
         rdf:about="">
        <dc:format>image/svg+xml</dc:format>
        <dc:type
           rdf:resource="http://purl.org/dc/dcmitype/StillImage" />
        <dc:title />
      </cc:Work>
    </rdf:RDF>
  </metadata>
  <g
     inkscape:label="Camada 1"
     inkscape:groupmode="layer"
     id="layer1">
    <g
       id="g3789"
       transform="matrix(1.0432143,0,0,0.96143846,1.5119054,1.6305133)"
       style="fill:none;fill-rule:evenodd">
      <path
         id="path3763"
         d="m 37.492754,62 v 72.296 c 0,34.146 27.345,62.449 61.53,62.702 34.457996,0.256 62.469996,-27.567 62.469996,-61.924 V 62 Z"
         inkscape:connector-curvature="0"
         style="fill:#f1d0a5" />
      <path
         id="path3765"
         d="m 147.61875,62 v 73.073 c 0,31.898 -24.561,58.16 -56.125996,61.552 2.279,0.245 4.592,0.375 6.937,0.375 34.828996,0 63.062996,-27.726 63.062996,-61.926 V 62 Z"
         inkscape:connector-curvature="0"
         style="fill:#f1b986" />
      <path
         id="path3767"
         d="m 99.722754,0 c 22.869996,0 45.589996,6.723 62.650996,22.471 17.165,15.844 22.223,39.733 20.926,63.471 -0.772,14.134 -2.721,28.085 -10.202,41.753 -4.12,6.675 -8.13,11.993 -12.17,17.284 0.083,-5.053 -0.357,-11.051 -0.307,-14.602 0.101,-7.355 -0.152,-14.714 -0.76,-22.044 -0.094,-1.142 -0.252,-2.398 -1.104,-3.16 -0.637,-0.571 -1.527,-0.736 -2.37,-0.87 -19.096,-3.065 -38.985,-2.857 -57.013996,-9.878 -5.402,-2.103 -10.54,-4.825 -15.665,-7.539 -5.307,-2.812 -16.54,-11.586 -22.27,-10.28 -4.727,1.078 -9.196,7.792 -12.041,11.351 -7.474,9.35 -11.393,21.302 -10.91,33.28 l 0.392,9.671 c 0.17,4.202 1.117,11.418 0.169,16.092 -15.2,-16.21 -23.242,-27.411 -25.079,-49.062 -0.969,-11.422 -0.919,-38.868 4.648,-49.185 4.735,-8.775 9.949,-18.743 17.208,-25.608 C 52.956754,6.945 75.980754,0 99.196754,0 h 0.527 z"
         inkscape:connector-curvature="0"
         style="fill:#b39576;fill-opacity:1" />
      <path
         id="path3769"
         d="m 40.425754,143 c 3.293,7.433 18.757,34.274 30.013,28.438 4.803,-2.49 3.99,-10.199 8.13,-13.687 2.222,-1.87 5.347,-2.078 8.242,-2.2 l 27.231996,-1.144 c 3.537,-0.15 7.166,-0.286 10.527,0.831 4.345,1.443 7.922,5.042 9.354,9.41 0.725,2.213 1.001,4.727 2.63,6.384 3.462,3.524 9.461,-4.506 11.692,-6.831 3.83,-3.993 6.786,-8.8 10.867,-12.533 1.277,3.585 -0.902,7.397 -2.991,10.574 -5.58,8.487 -11.325,17.155 -19.454,23.215 -5.982,4.46 -13.029,7.314 -20.249,9.154 -17.495996,4.459 -36.882996,2.879 -52.359996,-6.455 -15.478,-9.333 -26.31,-26.926 -25.526,-45.051"
         inkscape:connector-curvature="0"
         style="fill:#1e1e1e" />
      <path
         id="path3771"
         d="m 198.49275,300.813 v -26.024 c 0,-22.944 -15.536,-42.943 -37.684,-48.508 L 123.86775,217 H 74.117754 l -36.941,9.281 c -22.147,5.565 -37.68400037,25.565 -37.68400037,48.509 v 26.024 c 0,3.416 2.75599997,6.186 6.15599997,6.186 H 192.33575 c 3.401,0 6.157,-2.77 6.157,-6.187"
         inkscape:connector-curvature="0"
         style="fill:#bf213e" />
      <path
         id="path3773"
         d="m 167.49275,228 c 8.112,8.858 12.939,20.502 12.939,33.038 V 306 h 12.771 c 3.474,0 6.29,-2.747 6.29,-6.136 v -25.809 c 0,-20.504 -12.894,-38.632 -32,-46.055"
         inkscape:connector-curvature="0"
         style="fill:#8d1c31" />
      <path
         id="path3775"
         d="M 161.79975,306 H 37.185754 c -10.324,0 -18.693,-8.394 -18.693,-18.75 v -5 c 0,-3.451 2.79,-6.25 6.231,-6.25 H 174.26175 c 3.44,0 6.231,2.798 6.231,6.25 v 5 c 0,10.356 -8.37,18.75 -18.693,18.75"
         inkscape:connector-curvature="0"
         style="fill:#56bfbc" />
      <path
         id="path3777"
         d="m 173.38175,276 h -14.667 c 3.375,0 6.111,2.798 6.111,6.25 v 5 c 0,10.355 -8.207,18.75 -18.333,18.75 h 14.667 c 10.125,0 18.333,-8.394 18.333,-18.75 v -5 c 0,-3.452 -2.736,-6.25 -6.111,-6.25"
         inkscape:connector-curvature="0"
         style="fill:#33a6a6" />
      <path
         id="path3779"
         d="M 170.49275,276 H 28.492754 v -80.6 c 0,-6.849 5.577,-12.4 12.456,-12.4 H 158.03675 c 6.88,0 12.456,5.551 12.456,12.4 V 276 Z"
         inkscape:connector-curvature="0"
         style="fill:#56bfbc" />
      <path
         id="path3781"
         d="m 159.90475,184 v 76.232 c 0,3.43 -2.789,6.21 -6.229,6.21 H 28.492754 V 277 H 170.49275 v -80.734 c 0,-6.225 -4.597,-11.365 -10.588,-12.266 z"
         inkscape:connector-curvature="0"
         style="fill:#33a6a6" />
      <path
         id="path3783"
         d="m 98.992754,217 c 7.455996,0 13.499996,6.044 13.499996,13.5 0,7.456 -6.044,13.5 -13.499996,13.5 -7.456,0 -13.5,-6.044 -13.5,-13.5 0,-7.456 6.044,-13.5 13.5,-13.5"
         inkscape:connector-curvature="0"
         style="fill:#f4fbff" />
      <path
         id="path3785"
         d="m 71.492754,134.5 c 0,2.486 -2.015,4.5 -4.5,4.5 -2.485,0 -4.5,-2.014 -4.5,-4.5 0,-2.486 2.015,-4.5 4.5,-4.5 2.485,0 4.5,2.014 4.5,4.5 m 63.999996,0 c 0,2.486 -2.015,4.5 -4.5,4.5 -2.485,0 -4.5,-2.014 -4.5,-4.5 0,-2.486 2.015,-4.5 4.5,-4.5 2.485,0 4.5,2.014 4.5,4.5"
         inkscape:connector-curvature="0"
         style="fill:#1e1e1e" />
      <path
         id="path3787"
         d="m 95.492754,153 h 8.999996 c 0,0 -4.499996,-13.5 -8.999996,0"
         inkscape:connector-curvature="0"
         style="fill:#f1b986" />
      <path
         style="fill:#b39576;fill-opacity:1;stroke-width:0.75482613"
         d="m 52.361122,177.8522 c -7.75462,-8.58148 -12.471658,-19.04134 -13.269067,-29.42366 -0.460288,-5.99298 0.388081,-6.31375 3.119207,-1.17941 7.505874,14.11057 18.49682,25.36599 24.757399,25.35314 3.640253,-0.007 6.135015,-2.41285 8.186888,-7.89355 2.858462,-7.63517 4.147642,-8.32454 16.832204,-9.00077 20.487057,-1.0922 31.855117,-0.92186 34.244127,0.51312 3.30793,1.98693 5.85485,5.30629 7.84569,10.22515 3.41463,8.43668 5.62941,7.74484 17.0006,-5.31054 6.41782,-7.36837 8.12472,-8.95213 8.12472,-7.53862 0,0.9842 -0.53334,2.92181 -1.18521,4.30579 -2.13896,4.54124 -9.6278,15.2903 -14.04139,20.15422 l -4.32916,4.77088 H 98.252281 56.85743 Z"
         id="path3813"
         inkscape:connector-curvature="0" />
      <path
         style="fill:#b39576;fill-opacity:1;stroke-width:2.85714293"
         d=""
         id="path3815"
         inkscape:connector-curvature="0"
         transform="matrix(0.25362318,0,0,0.27519529,-1.449276,-1.6959102)" />
      <path
         style="fill:#637072;fill-opacity:1;stroke-width:0.75482613"
         d="m 64.436596,137.57271 c -2.215974,-1.68415 -2.081617,-4.695 0.284583,-6.37726 1.698121,-1.20729 2.09354,-1.22688 3.804348,-0.18842 2.321659,1.40924 2.831548,4.2425 1.130535,6.28197 -1.524019,1.82726 -3.07739,1.91169 -5.219466,0.28371 z"
         id="path3817"
         inkscape:connector-curvature="0" />
      <path
         style="fill:#637072;fill-opacity:1;stroke-width:0.75482613"
         d="m 128.04347,137.22416 c -0.7971,-0.8649 -1.44927,-2.10328 -1.44927,-2.75195 0,-1.69287 2.64582,-4.3245 4.34782,-4.3245 1.70201,0 4.34783,2.63163 4.34783,4.3245 0,1.69286 -2.64582,4.32449 -4.34783,4.32449 -0.7971,0 -2.10144,-0.70764 -2.89855,-1.57254 z"
         id="path3819"
         inkscape:connector-curvature="0" />
      <path
         style="fill:#786055;fill-opacity:1;stroke-width:0.75482613"
         d="M 32.402888,139.04048 C 20.33555,125.01984 15.672024,113.99617 14.207121,96.029264 13.054291,81.889909 14.415524,62.185481 17.138362,53.598279 19.121925,47.342578 26.970622,34.074274 32.535944,27.568497 46.486837,11.260123 68.194736,1.8138116 94.347823,0.67072053 117.36789,-0.33543363 138.01433,5.0503991 154.16885,16.27564 c 22.36156,15.538312 31.8093,41.537084 28.17667,77.537964 -1.4704,14.572156 -5.41584,27.472406 -11.02626,36.052076 -4.79325,7.33003 -9.4839,13.62203 -9.85498,13.21939 -0.18618,-0.20202 -0.56626,-8.53331 -0.84461,-18.51398 -0.38546,-13.82128 -0.74417,-18.39558 -1.50491,-19.191 -0.95406,-0.99753 -10.34017,-2.48201 -27.4481,-4.34111 -10.7793,-1.171372 -22.62452,-3.533199 -29.36545,-5.855195 C 99.122495,94.088838 89.616019,89.429578 81.175701,84.829867 63.626336,75.266011 61.770119,74.800108 57.175664,78.805953 c -3.625838,3.161319 -10.61184,12.243022 -13.158103,17.105346 -4.813022,9.190901 -5.391552,12.516611 -5.430955,31.220191 -0.01973,9.36855 -0.237548,17.25352 -0.484027,17.52216 -0.246478,0.26864 -2.811339,-2.25729 -5.699691,-5.61317 z"
         id="path3821"
         inkscape:connector-curvature="0" />
      <path
         style="fill:#786055;fill-opacity:1;stroke-width:0.75482613"
         d="M 52.059813,176.83393 C 44.197061,167.57501 39.291582,155.93117 39.777692,147.68061 l 0.222306,-3.77314 3.596736,6.27333 c 3.426036,5.97559 13.967034,18.49425 15.572583,18.49425 0.41702,0 0.758217,0.34473 0.758217,0.76608 0,1.32195 4.15229,3.16528 7.130113,3.16528 3.764245,0 5.472258,-1.62655 8.694149,-8.27949 1.749219,-3.61198 3.342079,-5.8345 4.672361,-6.51934 3.771361,-1.94151 37.414033,-3.29775 43.541173,-1.75527 3.44556,0.8674 6.89066,4.37879 9.56037,9.74432 2.60737,5.24025 6.11197,8.66752 6.11197,5.97711 0,-0.45798 0.32609,-0.61401 0.72464,-0.34674 0.39856,0.26727 0.72464,0.11124 0.72464,-0.34673 0,-0.45797 0.24457,-0.75543 0.54348,-0.66102 0.29891,0.0944 4.07509,-3.53227 8.39151,-8.05929 4.31642,-4.52702 8.16622,-8.3555 8.5551,-8.50773 1.36615,-0.53477 -1.61235,5.70133 -5.57615,11.67481 -2.2029,3.3198 -6.13723,8.57061 -8.74295,11.66846 l -4.73766,5.63245 H 98.33513 57.149982 Z"
         id="path3823"
         inkscape:connector-curvature="0" />
    </g>
  </g>
</svg>
