<?xml version="1.0" standalone="no"?>
<!DOCTYPE svg PUBLIC "-//W3C//DTD SVG 20010904//EN"
 "http://www.w3.org/TR/2001/REC-SVG-20010904/DTD/svg10.dtd">
<svg version="1.0" xmlns="http://www.w3.org/2000/svg"
 width="1123.000000pt" height="1123.000000pt" viewBox="0 0 1123.000000 1123.000000"
 preserveAspectRatio="xMidYMid meet">
<metadata>
Created by potrace 1.11, written by Peter Selinger 2001-2013
</metadata>
<g transform="translate(0.000000,1123.000000) scale(0.100000,-0.100000)"
fill="#000000" stroke="none">
<path d="M5358 11165 c-2 -2 -41 -6 -88 -10 -169 -13 -274 -23 -310 -30 -32
-7 -71 -13 -185 -30 -22 -3 -47 -7 -55 -10 -8 -2 -28 -7 -45 -10 -16 -2 -75
-16 -130 -30 -55 -14 -110 -28 -122 -30 -78 -18 -366 -118 -463 -162 -19 -8
-51 -22 -70 -31 -60 -25 -254 -124 -270 -136 -8 -7 -28 -18 -45 -26 -16 -8
-34 -18 -40 -22 -32 -25 -115 -76 -115 -72 0 3 -6 -1 -14 -8 -28 -26 -56 -48
-64 -48 -4 0 -19 -11 -34 -25 -15 -14 -30 -25 -32 -25 -5 0 -16 -8 -69 -53
-12 -10 -35 -28 -51 -40 -40 -31 -215 -205 -253 -252 -17 -22 -45 -58 -62 -80
-17 -22 -34 -45 -39 -50 -4 -6 -33 -46 -62 -90 -30 -44 -60 -86 -67 -93 -7 -7
-13 -19 -13 -27 0 -7 -4 -15 -8 -17 -4 -1 -36 -50 -70 -108 -34 -58 -66 -110
-72 -117 -5 -7 -10 -15 -10 -19 0 -3 -9 -18 -20 -34 -11 -15 -17 -30 -13 -34
3 -3 1 -6 -5 -6 -10 0 -72 -120 -72 -140 0 -6 -4 -10 -8 -10 -5 0 -9 -6 -10
-12 0 -7 -12 -51 -26 -98 -14 -47 -27 -96 -30 -110 -3 -14 -7 -34 -9 -45 -3
-11 -8 -40 -12 -65 -4 -25 -9 -54 -11 -65 -3 -11 -7 -39 -9 -63 -3 -24 -7 -60
-10 -80 -10 -74 -17 -153 -19 -215 -1 -35 -5 -67 -8 -73 -7 -11 -2 -737 5
-809 21 -214 40 -326 77 -470 12 -44 23 -89 25 -100 3 -11 9 -29 14 -40 12
-26 23 -57 27 -72 6 -30 108 -244 152 -320 24 -41 104 -164 119 -183 6 -8 40
-51 74 -95 35 -44 68 -85 73 -92 6 -6 34 -37 61 -69 63 -73 178 -195 274 -290
56 -56 74 -81 77 -106 12 -99 24 -186 29 -213 21 -103 76 -273 116 -355 16
-33 29 -62 29 -65 0 -4 111 -190 143 -239 6 -11 19 -27 27 -36 8 -9 24 -29 35
-44 50 -70 190 -216 288 -301 l59 -50 -349 -1 c-191 0 -361 -4 -378 -7 -115
-25 -182 -61 -266 -142 -48 -47 -108 -151 -112 -193 -1 -12 -4 -22 -8 -22 -4
0 -7 -249 -8 -552 0 -304 -1 -601 -1 -659 l0 -105 -107 -54 c-60 -29 -109 -57
-111 -61 -2 -5 -8 -9 -14 -9 -12 0 -169 -102 -191 -125 -9 -8 -18 -15 -21 -15
-17 0 -245 -223 -309 -301 -20 -25 -37 -51 -37 -58 0 -6 -4 -11 -8 -11 -7 0
-52 -66 -120 -175 -18 -30 -82 -164 -101 -215 -10 -25 -22 -54 -26 -65 -5 -11
-9 -23 -10 -27 -2 -5 -3 -9 -5 -10 -1 -2 -3 -10 -5 -18 -2 -8 -11 -42 -20 -75
-9 -33 -18 -71 -21 -85 -2 -14 -7 -36 -10 -50 -3 -14 -7 -38 -9 -55 -2 -16 -6
-55 -10 -85 -10 -84 -11 -1099 -1 -1150 16 -84 90 -156 179 -176 36 -8 7440
-7 7477 1 51 11 79 27 138 82 92 86 89 62 87 698 -3 546 -4 589 -25 695 -6 30
-13 64 -15 75 -2 11 -11 47 -20 80 -10 33 -18 65 -19 70 -1 6 -7 20 -14 32 -7
12 -12 26 -12 31 0 5 -8 27 -17 48 -9 22 -17 41 -18 44 -2 13 -88 177 -100
190 -7 8 -20 29 -29 47 -8 17 -21 37 -29 45 -7 7 -21 27 -32 44 -55 86 -220
258 -335 350 -41 32 -76 62 -78 67 -2 4 -7 7 -11 7 -5 0 -42 22 -83 49 -67 44
-260 152 -273 152 -30 -1 -31 7 -30 637 0 502 -2 640 -14 692 -7 36 -17 66
-22 68 -4 2 -5 10 -2 18 3 8 0 14 -6 14 -6 0 -11 5 -11 10 0 6 -10 25 -22 42
-76 106 -182 175 -313 204 -16 4 -205 8 -420 9 -214 2 -394 3 -399 4 -5 1 4
11 20 23 56 42 251 244 332 345 102 126 252 331 252 344 0 6 5 7 10 4 6 -3 10
-2 10 3 0 11 61 105 75 114 5 4 6 8 2 8 -5 0 0 12 11 28 39 57 55 115 58 212
1 60 11 131 27 192 13 54 22 100 19 103 -3 3 0 5 7 5 7 0 9 5 5 12 -4 6 -3 8
4 4 6 -3 14 0 19 7 8 14 75 97 103 127 33 36 300 388 300 396 0 2 16 27 35 54
19 27 51 80 70 117 20 37 40 75 45 83 9 14 18 34 65 145 25 58 87 227 89 245
2 8 9 35 16 60 7 25 14 50 16 55 48 198 74 337 88 475 3 25 7 65 10 90 34 267
39 672 11 910 -17 152 -25 203 -41 278 -3 15 -7 34 -8 42 -1 8 -6 31 -10 50
-4 19 -8 42 -10 50 -2 8 -5 22 -8 30 -3 8 -16 53 -29 100 -12 47 -26 89 -31
94 -4 6 -8 17 -8 25 0 20 -70 194 -116 286 -86 175 -193 340 -309 474 -101
117 -357 351 -384 351 -6 0 -11 4 -11 8 0 4 -13 16 -30 25 -16 10 -35 23 -42
30 -22 20 -108 77 -116 77 -5 0 -17 8 -28 18 -10 10 -35 26 -54 35 -19 10 -51
27 -70 39 -41 25 -266 138 -274 138 -3 0 -29 11 -58 24 -29 13 -93 38 -143 56
-49 18 -99 37 -110 42 -11 5 -44 15 -72 23 -29 8 -77 22 -105 30 -54 16 -74
22 -105 29 -113 27 -199 46 -248 55 -33 6 -73 13 -90 16 -28 6 -46 9 -130 20
-16 3 -57 7 -90 10 -74 7 -102 12 -114 19 -5 4 -12 2 -16 -4 -4 -6 -11 -7 -17
-4 -6 4 -29 9 -52 11 -47 4 -624 11 -628 8z"/>
</g>
</svg>
